<svg width="56" height="52" viewBox="0 0 56 52" fill="none" xmlns="http://www.w3.org/2000/svg">
<path d="M54.8561 37.9957H50.9989V27.9957H30.4275V21.4242H47.4275C48.0561 21.4242 48.5704 20.9099 48.5704 20.2814V1.42423C48.5704 0.795658 48.0561 0.281372 47.4275 0.281372H8.57034C7.94177 0.281372 7.42749 0.795658 7.42749 1.42423V20.2814C7.42749 20.9099 7.94177 21.4242 8.57034 21.4242H25.5703V27.9957H4.99892V37.9957H1.14177C0.827486 37.9957 0.570343 38.2528 0.570343 38.5671V51.1385C0.570343 51.4528 0.827486 51.7099 1.14177 51.7099H13.7132C14.0275 51.7099 14.2846 51.4528 14.2846 51.1385V38.5671C14.2846 38.2528 14.0275 37.9957 13.7132 37.9957H9.85606V32.8528H25.5703V37.9957H21.7132C21.3989 37.9957 21.1418 38.2528 21.1418 38.5671V51.1385C21.1418 51.4528 21.3989 51.7099 21.7132 51.7099H34.2846C34.5989 51.7099 34.8561 51.4528 34.8561 51.1385V38.5671C34.8561 38.2528 34.5989 37.9957 34.2846 37.9957H30.4275V32.8528H46.1418V37.9957H42.2846C41.9704 37.9957 41.7132 38.2528 41.7132 38.5671V51.1385C41.7132 51.4528 41.9704 51.7099 42.2846 51.7099H54.8561C55.1704 51.7099 55.4275 51.4528 55.4275 51.1385V38.5671C55.4275 38.2528 55.1704 37.9957 54.8561 37.9957ZM9.7132 46.9457C9.7132 47.0528 9.62749 47.1385 9.52035 47.1385H5.32749C5.22034 47.1385 5.13463 47.0528 5.13463 46.9457V42.7528C5.13463 42.6457 5.22034 42.5599 5.32749 42.5599H9.52035C9.62749 42.5599 9.7132 42.6457 9.7132 42.7528V46.9457ZM30.2846 46.9457C30.2846 47.0528 30.1989 47.1385 30.0918 47.1385H25.8989C25.7918 47.1385 25.7061 47.0528 25.7061 46.9457V42.7528C25.7061 42.6457 25.7918 42.5599 25.8989 42.5599H30.0918C30.1989 42.5599 30.2846 42.6457 30.2846 42.7528V46.9457ZM11.9989 16.8528V4.8528H43.9989V16.8528H11.9989ZM50.8561 46.9457C50.8561 47.0528 50.7704 47.1385 50.6632 47.1385H46.4704C46.3632 47.1385 46.2775 47.0528 46.2775 46.9457V42.7528C46.2775 42.6457 46.3632 42.5599 46.4704 42.5599H50.6632C50.7704 42.5599 50.8561 42.6457 50.8561 42.7528V46.9457ZM17.1418 10.8528C17.1418 11.6106 17.4428 12.3373 17.9786 12.8731C18.5144 13.4089 19.2412 13.7099 19.9989 13.7099C20.7567 13.7099 21.4834 13.4089 22.0192 12.8731C22.555 12.3373 22.8561 11.6106 22.8561 10.8528C22.8561 10.095 22.555 9.36831 22.0192 8.8325C21.4834 8.29668 20.7567 7.99566 19.9989 7.99566C19.2412 7.99566 18.5144 8.29668 17.9786 8.8325C17.4428 9.36831 17.1418 10.095 17.1418 10.8528Z" fill="#1890ff"/>
</svg>
