<svg width="64" height="64" viewBox="0 0 64 64" fill="none" xmlns="http://www.w3.org/2000/svg">
<path d="M8 20.4163H10.198V22.6149H12.5947V20.4163H14.7927V18.0203H12.5947V15.8223H10.198V18.0203H8V20.4163Z" fill="#9254DE"/>
<path d="M25.6051 2V4.198H23.4071V6.59399H25.6051V8.79332H28.0018V6.59399H30.1998V4.198H28.0018V2H25.6051Z" fill="#9254DE"/>
<path d="M50.0457 37.9528V40.1514H47.8477V42.5474H50.0457V44.7454H52.4424V42.5474H54.6404V40.1514H52.4424V37.9528H50.0457Z" fill="#9254DE"/>
<path d="M16.6401 28.8464C16.3357 28.0548 16.3422 27.1884 16.6626 26.395L16.6401 28.8464ZM16.6401 28.8464C16.4286 28.7117 16.2032 28.5947 15.9646 28.4985L15.9645 28.4985C14.9052 28.0717 13.741 28.0823 12.6905 28.5297C11.6396 28.977 10.8248 29.8074 10.3973 30.8674C9.96978 31.9264 9.98115 33.0906 10.4284 34.1415C10.8757 35.1933 11.7062 36.0075 12.7663 36.4349L12.7664 36.4349C13.2826 36.6428 13.8243 36.747 14.3665 36.747C14.935 36.747 15.5028 36.6321 16.0408 36.4038L16.041 36.4037C17.3799 35.8341 18.2747 34.659 18.5499 33.3339C18.9089 34.1045 19.5396 34.702 20.3342 35.0228L20.3346 35.023C20.7407 35.1861 21.1656 35.2677 21.5905 35.2677C22.0348 35.2677 22.4782 35.1782 22.8971 34.9997L27.0033 33.2529C27.1908 33.5895 27.4305 33.882 27.7078 34.1262L13.4773 61.8856L13.2907 62.2496H13.6998H16.3918H16.5446L16.6143 62.1137L28.5884 38.7547V61.9996V62.2496H28.8384H31.2344H31.4844V61.9996V38.7547L43.4593 62.1137L43.529 62.2496H43.6818H46.3738H46.7828L46.5962 61.8856L32.4081 34.2073L38.2085 31.7398C38.5572 32.163 39.005 32.5004 39.5316 32.7129L39.5319 32.713C39.938 32.8761 40.3629 32.9577 40.7878 32.9577C41.2321 32.9577 41.6754 32.8682 42.0943 32.6897C42.0943 32.6897 42.0944 32.6897 42.0944 32.6897L48.1676 30.1055C48.4809 30.5193 48.8995 30.8451 49.3954 31.0455L49.396 31.0457C49.7491 31.1874 50.1193 31.259 50.4891 31.259C50.8758 31.259 51.2611 31.1816 51.6262 31.0258L16.6401 28.8464ZM22.6545 20.5904L22.6546 20.5903C22.9892 19.7599 23.6264 19.1078 24.4479 18.759L22.6545 20.5904ZM22.6545 20.5904C22.3649 21.3104 22.3394 22.0883 22.5633 22.8157M22.6545 20.5904L22.5633 22.8157M42.2464 8.97907L42.2461 8.97918C42.0733 9.05254 41.9872 9.26632 42.0605 9.43853L50.1638 28.4798L50.1639 28.48C50.1995 28.5639 50.2663 28.63 50.3553 28.6656L50.3562 28.6659C50.4454 28.702 50.5391 28.7007 50.6233 28.6649C50.6233 28.6649 50.6233 28.6649 50.6234 28.6649L51.626 28.2389L51.6265 28.2387C51.7087 28.204 51.7751 28.1372 51.811 28.0475L51.8113 28.0466C51.8474 27.9575 51.8461 27.8637 51.8104 27.7796L42.2464 8.97907ZM42.2464 8.97907L43.2479 8.5526C43.2896 8.53492 43.3337 8.52639 43.3791 8.52639C43.5205 8.52639 43.6542 8.61074 43.7083 8.73813L43.7084 8.73827L51.8103 27.7794L42.2464 8.97907ZM52.0431 28.1404C52.1037 27.9904 52.1024 27.8277 52.0404 27.6817L52.0431 28.1404ZM52.0431 28.1404C51.9831 28.2904 51.8691 28.4077 51.7237 28.469L52.0431 28.1404ZM25.453 21.1204L25.4526 21.1206C25.2635 21.2006 25.1155 21.3518 25.0357 21.5491C24.9566 21.7462 24.9583 21.9574 25.0392 22.1478L25.453 21.1204ZM25.453 21.1204L32.2916 18.2103L37.0678 29.4362L30.2299 32.3454C30.2298 32.3454 30.2297 32.3455 30.2296 32.3455C29.8298 32.514 29.3702 32.3281 29.2019 31.9319L29.2018 31.9318L25.0392 22.148L25.453 21.1204ZM22.5633 22.8157L18.4561 24.5636C18.4561 24.5636 18.456 24.5636 18.456 24.5636L18.4559 24.5637L18.5538 24.7937C17.7938 25.1164 17.2045 25.7184 16.8945 26.4884L16.6626 26.3948C16.6626 26.3948 16.6626 26.3949 16.6626 26.3949L22.5633 22.8157ZM51.6266 31.0256L52.6288 30.5998L52.6289 30.5998C54.1094 29.9703 54.8004 28.2534 54.1711 26.7738L54.1711 26.7738L53.7943 25.8881C54.3662 25.1327 54.8461 24.3 55.2103 23.3965L54.9784 23.303L55.2103 23.3965C56.2897 20.7177 56.2617 17.7782 55.1304 15.1211C53.9998 12.4641 51.9007 10.4053 49.2225 9.32585L49.1291 9.55772L49.2225 9.32584C48.319 8.96172 47.3858 8.72983 46.4453 8.61819L46.0684 7.73315C46.0684 7.73314 46.0684 7.73313 46.0684 7.73312C45.4383 6.25262 43.7215 5.56242 42.242 6.19096L42.2418 6.19104L41.2398 6.6177C41.2398 6.6177 41.2398 6.6177 41.2398 6.61771C39.9867 7.15111 39.3059 8.4612 39.5056 9.748L33.4314 12.3329C32.6098 12.6817 31.9725 13.3338 31.6379 14.1642C31.4255 14.6908 31.3581 15.2473 31.4214 15.7917L24.4481 18.7589L51.6266 31.0256ZM13.6944 30.8924L13.6946 30.8923C13.9103 30.8002 14.1376 30.7544 14.3645 30.7544C14.5801 30.7544 14.7971 30.7961 15.0044 30.8796C15.4289 31.0508 15.7604 31.376 15.9398 31.797L15.9398 31.7971C16.3096 32.6645 15.9036 33.6724 15.0352 34.0423L15.1331 34.2724L15.0352 34.0424C14.6142 34.2217 14.1497 34.2263 13.7253 34.0552C13.3007 33.8839 12.9692 33.5587 12.7898 33.1377C12.6105 32.7167 12.6058 32.2523 12.777 31.8279C12.9482 31.4033 13.2734 31.0717 13.6944 30.8924ZM40.4229 12.1463L47.0765 27.7809L41.0892 30.3283L41.0891 30.3284C40.899 30.4093 40.688 30.4113 40.4914 30.3319C40.2943 30.2522 40.1434 30.1044 40.0625 29.9145C40.0625 29.9144 40.0624 29.9144 40.0624 29.9144L34.0231 15.7218L34.023 15.7215C33.9418 15.5314 33.9399 15.3205 34.0189 15.1226C34.0986 14.9256 34.2464 14.7747 34.4363 14.6938C34.4363 14.6937 34.4364 14.6937 34.4364 14.6937L40.4229 12.1463ZM23.5436 25.1877L25.9745 30.9009L21.8912 32.6383L21.8912 32.6383C21.7011 32.7193 21.49 32.7213 21.2935 32.6419C21.0963 32.5622 20.9454 32.4143 20.8645 32.2244L19.0472 27.9531L19.0471 27.9531C18.9662 27.763 18.9641 27.5513 19.0436 27.3547C19.1232 27.1576 19.2711 27.0066 19.4611 26.9257C19.4611 26.9257 19.4611 26.9257 19.4611 26.9257L23.5436 25.1877ZM52.769 16.1263C53.7458 18.4225 53.5911 20.9168 52.5643 22.9984L47.6732 11.5032C49.8863 12.207 51.7915 13.8291 52.769 16.1263Z" fill="#9254DE" stroke="#9254DE" stroke-width="0.5"/>
</svg>
