<svg width="19" height="22" viewBox="0 0 19 22" fill="none" xmlns="http://www.w3.org/2000/svg">
<path d="M5.82104 6.68339L4.23633 7.35781C3.95766 7.47612 3.74158 7.69685 3.62791 7.97918C3.514 8.26126 3.51693 8.56999 3.63549 8.84866L3.76382 9.1503C3.62107 9.00143 3.44971 8.88068 3.25269 8.80124C2.88676 8.65384 2.48514 8.6575 2.12239 8.81199C1.7594 8.96648 1.47829 9.25296 1.33064 9.61914C1.183 9.98482 1.18691 10.3864 1.3414 10.7494C1.49589 11.1127 1.78237 11.3935 2.14855 11.5412C2.32699 11.6131 2.51399 11.649 2.70099 11.649C2.89703 11.649 3.09307 11.6094 3.27909 11.5304C3.85769 11.2843 4.19648 10.7101 4.17522 10.1163L4.30208 10.4148C4.42064 10.6935 4.64137 10.9095 4.92345 11.0235C5.06156 11.0789 5.20578 11.1066 5.34976 11.1066C5.50034 11.1066 5.65067 11.0763 5.79293 11.0156L7.37716 10.3417C7.45538 10.5096 7.57003 10.649 7.70789 10.756L2.45654 20.9999H3.4436L8.00733 12.097V20.9999H8.88586V12.097L13.4498 20.9999H14.4369L9.1897 10.7636L11.4721 9.79269C11.5957 9.96185 11.7625 10.0958 11.9624 10.1765C12.1005 10.232 12.2447 10.2596 12.3887 10.2596C12.5393 10.2596 12.6896 10.2293 12.8319 10.1686L15.1269 9.1921C15.2352 9.35856 15.3905 9.48885 15.5792 9.56512C15.698 9.61278 15.8221 9.63674 15.9458 9.63674C16.0754 9.63674 16.2044 9.61083 16.3269 9.55852L16.6946 9.40232C17.1908 9.19136 17.4225 8.6157 17.2116 8.11973L17.0524 7.74573C17.2717 7.46389 17.4548 7.1515 17.5919 6.81123C17.9786 5.85155 17.9686 4.79899 17.5633 3.84713C17.1583 2.89527 16.4066 2.15804 15.4472 1.77133C15.1069 1.6342 14.7547 1.54937 14.3997 1.51198L14.2406 1.13822C14.0294 0.642006 13.4537 0.41052 12.9578 0.621229L12.5904 0.777672C12.1482 0.965892 11.9182 1.44329 12.0225 1.89648L9.72723 2.87327C9.44856 2.99158 9.23248 3.21256 9.11881 3.49464C9.03814 3.6946 9.01908 3.90751 9.05525 4.11382L6.43337 5.22945C6.15471 5.34776 5.93862 5.56873 5.82495 5.85082C5.71642 6.12068 5.71716 6.4145 5.82104 6.68339ZM2.98209 10.8333C2.80536 10.9086 2.60981 10.9105 2.43161 10.8387C2.25341 10.7668 2.11384 10.6299 2.03855 10.4532C1.96326 10.2764 1.9613 10.0809 2.03317 9.90269C2.10504 9.72449 2.24192 9.58492 2.41866 9.50963C2.5091 9.47101 2.60468 9.4517 2.70025 9.4517C2.79118 9.4517 2.88236 9.4693 2.96914 9.50425C3.14734 9.57612 3.28691 9.713 3.3622 9.88974C3.51767 10.2544 3.34705 10.6778 2.98209 10.8333ZM16.8662 4.14388C17.2626 5.07594 17.1656 6.09404 16.6975 6.91194L14.7539 2.34406C15.6684 2.57383 16.4694 3.21158 16.8662 4.14388ZM12.8876 1.47482L13.255 1.31838C13.2821 1.30689 13.3105 1.30151 13.3389 1.30151C13.4249 1.30151 13.5087 1.35211 13.5439 1.43498L16.5146 8.41673C16.5374 8.47026 16.5379 8.5299 16.5156 8.5849C16.4936 8.6399 16.4518 8.68292 16.3985 8.70541L16.0309 8.86161C15.9774 8.88435 15.9177 8.88483 15.8627 8.86259C15.8077 8.84059 15.7649 8.79879 15.7422 8.74526L12.771 1.76351C12.7243 1.65375 12.7776 1.52151 12.8876 1.47482ZM9.82183 3.77746C9.85996 3.68311 9.93158 3.60953 10.024 3.57018L12.3034 2.60023L14.8148 8.50155L12.5351 9.47149C12.4427 9.51085 12.3401 9.51158 12.2457 9.47345C12.1514 9.43532 12.0778 9.3637 12.0384 9.2713L9.82403 4.06737C9.78443 3.97473 9.78394 3.87206 9.82183 3.77746ZM6.52797 6.13388C6.5661 6.03953 6.63772 5.96571 6.73012 5.9266L9.32194 4.82368L11.145 9.1085L8.55317 10.2112C8.36031 10.2926 8.13786 10.2031 8.05622 10.011L6.52992 6.42355C6.49057 6.3309 6.49008 6.22824 6.52797 6.13388ZM6.11437 7.38201L7.07748 9.64554L5.49594 10.3185C5.40354 10.3578 5.30087 10.3586 5.20652 10.3204C5.11216 10.2823 5.03858 10.2107 4.99923 10.1183L4.33288 8.55215C4.29353 8.45975 4.29279 8.35684 4.33092 8.26249C4.36906 8.16813 4.44068 8.09455 4.53308 8.0552L6.11437 7.38201Z" fill="#1890ff"/>
<path d="M3.2994 8.68529L3.29944 8.6853C3.35978 8.70963 3.41784 8.7375 3.47356 8.76855C3.39047 8.49479 3.40302 8.20234 3.51195 7.93249C3.51197 7.93245 3.51199 7.93241 3.512 7.93237L3.62791 7.97918C3.74158 7.69685 3.95766 7.47612 4.23633 7.35781L3.2994 8.68529ZM3.2994 8.68529C2.90278 8.52553 2.46674 8.52947 2.07341 8.69698C1.67993 8.86446 1.37474 9.1755 1.21471 9.57239C1.05465 9.96888 1.05893 10.4049 1.22638 10.7984H1.22638C1.39387 11.1922 1.70494 11.4971 2.1018 11.6571L2.10185 11.6571C2.29505 11.7349 2.49789 11.774 2.70099 11.774C2.91395 11.774 3.12659 11.731 3.32793 11.6455L3.32803 11.6455C3.79927 11.445 4.12352 11.0443 4.24639 10.585C4.38606 10.8357 4.6062 11.0302 4.87665 11.1394L4.87685 11.1394C5.02967 11.2008 5.1897 11.2316 5.34976 11.2316C5.51719 11.2316 5.68419 11.1978 5.84193 11.1306L7.32025 10.5018C7.38396 10.6099 7.46222 10.7054 7.55139 10.7873L2.34531 20.9428L2.252 21.1249H2.45654H3.4436H3.51999L3.55484 21.0569L7.88233 12.6149V20.9999V21.1249H8.00733H8.88586H9.01086V20.9999V12.6149L13.3386 21.0569L13.3734 21.1249H13.4498H14.4369H14.6414L14.5481 20.9428L9.36218 10.8261L11.4333 9.945C11.5622 10.0954 11.7252 10.2156 11.9156 10.2924L11.9158 10.2925C12.0686 10.3539 12.2287 10.3846 12.3887 10.3846C12.5561 10.3846 12.7231 10.3509 12.8808 10.2837C12.8808 10.2837 12.8809 10.2836 12.8809 10.2836L15.084 9.3462C15.2006 9.49284 15.3531 9.60858 15.5323 9.68101L15.5326 9.68113C15.666 9.73464 15.8059 9.76174 15.9458 9.76174C16.0922 9.76174 16.238 9.73244 16.376 9.67347L16.7434 9.51736L16.7435 9.51735C17.3033 9.27936 17.5645 8.63025 17.3266 8.07081L17.3266 8.07079L17.1959 7.76376C17.4022 7.48864 17.5757 7.18595 17.7078 6.85796L17.5919 6.81123L17.7078 6.85795C18.1069 5.86754 18.0966 4.78055 17.6783 3.79816C17.2603 2.8158 16.4841 2.05448 15.4939 1.65539L15.4472 1.77133L15.4939 1.65539C15.1659 1.52321 14.8274 1.43818 14.4862 1.39606L14.3556 1.08927C14.1174 0.52946 13.4683 0.268534 12.9089 0.506181L12.9088 0.506221L12.5414 0.662657C12.5414 0.66266 12.5414 0.662662 12.5414 0.662664C12.0758 0.860848 11.8193 1.3424 11.882 1.82046L9.67838 2.75821C9.36893 2.88959 9.12886 3.13528 9.00289 3.44788C8.92606 3.63832 8.8996 3.83909 8.91864 4.0361L6.38452 5.11439C6.3845 5.1144 6.38448 5.11441 6.38446 5.11442C6.38445 5.11442 6.38444 5.11443 6.38443 5.11443C6.07501 5.24582 5.83497 5.49151 5.70901 5.8041L5.70898 5.80418C5.60371 6.06593 5.59111 6.348 5.66608 6.61349L4.18748 7.24275C4.18746 7.24275 4.18745 7.24276 4.18743 7.24277L3.2994 8.68529ZM12.2373 2.76419L14.6508 8.43547L12.4862 9.35647L12.4861 9.35649C12.4247 9.38266 12.3565 9.38341 12.2925 9.35756C12.2283 9.33159 12.1796 9.28371 12.1534 9.22235C12.1534 9.22234 12.1534 9.22233 12.1534 9.22231L9.93904 4.01843L9.93897 4.01824C9.91271 3.95683 9.91198 3.88856 9.93786 3.82394L9.82183 3.77746M12.2373 2.76419L9.82403 4.06737C9.78443 3.97473 9.78394 3.87206 9.82183 3.77746M12.2373 2.76419L10.073 3.68518M12.2373 2.76419L10.073 3.68518M9.82183 3.77746C9.85996 3.68311 9.93158 3.60953 10.024 3.57018M9.82183 3.77746L9.93772 3.8243C9.96368 3.76006 10.0116 3.71134 10.0729 3.6852L10.024 3.57018M10.024 3.57018L10.073 3.68518M10.024 3.57018L10.073 3.68518M2.46765 9.62463L2.46775 9.62459C2.5427 9.59258 2.62158 9.5767 2.70025 9.5767C2.775 9.5767 2.85032 9.59116 2.92239 9.62018C3.06987 9.67966 3.1849 9.79247 3.2472 9.93873L3.24721 9.93875C3.37556 10.2398 3.23463 10.5898 2.93311 10.7183L2.98209 10.8333L2.9331 10.7183C2.78688 10.7806 2.62577 10.7822 2.47836 10.7227C2.33088 10.6633 2.21585 10.5504 2.15355 10.4042C2.09125 10.258 2.08965 10.0968 2.1491 9.94944C2.20858 9.80196 2.32139 9.68693 2.46765 9.62463ZM12.9365 1.58988L12.9366 1.58983L13.3038 1.43348C13.3038 1.43347 13.3038 1.43346 13.3038 1.43345C13.3148 1.42881 13.3265 1.42651 13.3389 1.42651C13.3783 1.42651 13.4146 1.45029 13.4289 1.48385L13.4289 1.48392L16.3996 8.46559C16.4092 8.48822 16.4097 8.51342 16.3997 8.53804L16.3996 8.53848C16.3896 8.56331 16.3716 8.58109 16.3499 8.59025L16.3497 8.59037L15.982 8.74656C15.9594 8.75617 15.9342 8.75666 15.9096 8.74671L15.9091 8.74653C15.8847 8.73674 15.8668 8.71889 15.8573 8.6964L15.8572 8.69631L12.886 1.71458C12.8664 1.66839 12.89 1.60959 12.9365 1.58988ZM8.17124 9.96204L6.64497 6.37467L6.77907 6.04162L9.25586 4.98764L10.981 9.04241L8.50457 10.096C8.50451 10.096 8.50446 10.0961 8.50441 10.0961C8.37464 10.1507 8.22575 10.0903 8.17126 9.96209L8.17124 9.96204ZM6.0483 7.54599L6.91351 9.57946L5.44699 10.2035L5.44695 10.2035C5.38551 10.2297 5.31733 10.2304 5.25335 10.2045C5.18911 10.1786 5.1404 10.1307 5.11425 10.0694C5.11424 10.0693 5.11424 10.0693 5.11423 10.0693L4.4479 8.50321L4.44788 8.50317C4.42171 8.44172 4.42096 8.3733 4.44682 8.30932C4.47279 8.24507 4.52069 8.19634 4.58206 8.1702L6.0483 7.54599ZM16.7511 4.19281C17.095 5.00116 17.0522 5.87729 16.7085 6.61858L14.9729 2.5395C15.7458 2.80606 16.407 3.3841 16.7511 4.19281Z" stroke="black" stroke-opacity="0.85" stroke-width="0.25"/>
</svg>
